<svg width="14" height="24" viewBox="0 0 14 24" fill="none" xmlns="http://www.w3.org/2000/svg">
<path fill-rule="evenodd" clip-rule="evenodd" d="M13.176 16.3949C13.3546 16.5633 13.4541 16.7908 13.4524 17.0274C13.4508 17.2639 13.3481 17.49 13.1671 17.6559L7.38369 22.963C7.20289 23.1291 6.95848 23.2214 6.7043 23.2196C6.45013 23.2178 6.20703 23.1221 6.02857 22.9535L0.319915 17.5661C-0.051853 17.2152 -0.0479041 16.6506 0.328735 16.305C0.705375 15.9594 1.31208 15.9637 1.68385 16.3145L6.71935 21.0678L11.8209 16.3854C12.0017 16.2193 12.2461 16.127 12.5002 16.1288C12.7544 16.1305 12.9975 16.2263 13.176 16.3949ZM1.74983 6.8811L6.85133 2.19874L11.8868 6.952C12.2586 7.30285 12.8653 7.30709 13.2419 6.96148C13.6186 6.61587 13.6225 6.05127 13.2508 5.70043L7.54211 0.313008C7.36365 0.144404 7.12055 0.0486688 6.86638 0.046891C6.6122 0.0451133 6.36779 0.137439 6.18699 0.30353L0.403535 5.61057C0.0268951 5.95618 0.0229462 6.52078 0.394714 6.87162C0.766483 7.22247 1.37319 7.22671 1.74983 6.8811Z" fill="#667382"/>
</svg>
